<?xml version="1.0" encoding="utf-8"?>
<!-- Generator: Adobe Illustrator 23.0.4, SVG Export Plug-In . SVG Version: 6.00 Build 0)  -->
<svg version="1.1" id="Layer_1" xmlns="http://www.w3.org/2000/svg" xmlns:xlink="http://www.w3.org/1999/xlink" x="0px" y="0px"
	 viewBox="0 0 98.7 82" style="enable-background:new 0 0 98.7 82;" xml:space="preserve">
<style type="text/css">
	.st0{fill:#EC1A3D;}
</style>
<g>
	<path class="st0" d="M43,24.7c0,4.8-3.9,8.7-8.7,8.7s-8.7-3.9-8.7-8.7s3.9-8.7,8.7-8.7S43,20,43,24.7"/>
	<path class="st0" d="M64.9,68.2L64.9,68.2l-4.5,0c-5.6,0-10.1-4.4-10.1-9.8V25.9v0c-0.7-6.7-4.9-10.4-7.3-12l9.9,0l2.5,0
		c6.7,0,12.2,5.3,12.2,11.8v29.9c0.1,5.3,5.4,10.6,7.7,12.7H64.9z"/>
	<path class="st0" d="M47,68.2H36.2c-7,0-12.8-6.3-12.8-14.1v-4.3c0-7.7,5.6-13.9,12.6-13.9h6v23.9c-0.2,2.2,0.9,4.5,3,6.8
		C45.8,67.2,46.5,67.8,47,68.2"/>
</g>
</svg>
